<!DOCTYPE svg PUBLIC "-//W3C//DTD SVG 1.1//EN" "http://www.w3.org/Graphics/SVG/1.1/DTD/svg11.dtd">
<!-- Uploaded to: SVG Repo, www.svgrepo.com, Transformed by: SVG Repo Mixer Tools -->
<svg fill="#ffffff" width="84px" height="84px" viewBox="-3.6 -3.6 43.20 43.20" version="1.1" preserveAspectRatio="xMidYMid meet" xmlns="http://www.w3.org/2000/svg" xmlns:xlink="http://www.w3.org/1999/xlink" stroke="#ffffff">
<g id="SVGRepo_bgCarrier" stroke-width="0">
<rect x="-3.6" y="-3.6" width="43.20" height="43.20" rx="0" fill="#080808" strokewidth="0"/>
</g>
<g id="SVGRepo_tracerCarrier" stroke-linecap="round" stroke-linejoin="round"/>
<g id="SVGRepo_iconCarrier"> <title>list-solid</title> <path d="M28,2H8A2,2,0,0,0,6,4V32a2,2,0,0,0,2,2H28a2,2,0,0,0,2-2V4A2,2,0,0,0,28,2ZM13,26H11V24h2Zm0-4H11V20h2Zm0-4H11V16h2Zm0-4H11V12h2Zm0-4H11V8h2ZM25,26H15V24H25Zm0-4H15V20H25Zm0-4H15V16H25Zm0-4H15V12H25Zm0-4H15V8H25Z" class="clr-i-solid clr-i-solid-path-1"/> <rect x="0" y="0" width="36" height="36" fill-opacity="0"/> </g>
</svg>