<!DOCTYPE svg PUBLIC "-//W3C//DTD SVG 1.1//EN" "http://www.w3.org/Graphics/SVG/1.1/DTD/svg11.dtd">
<!-- Uploaded to: SVG Repo, www.svgrepo.com, Transformed by: SVG Repo Mixer Tools -->
<svg fill="#71767b" width="800px" height="800px" viewBox="0 0 50 50" xmlns="http://www.w3.org/2000/svg" stroke="#71767b" stroke-width="0.8">
<g id="SVGRepo_bgCarrier" stroke-width="0"/>
<g id="SVGRepo_tracerCarrier" stroke-linecap="round" stroke-linejoin="round"/>
<g id="SVGRepo_iconCarrier">
<path d="M38 35h-2V17c0-.6-.4-1-1-1H18v-2h17c1.7 0 3 1.3 3 3v18z"/>
<path d="M37 36.5l-6.8-7.8 1.6-1.4 5.2 6.2 5.2-6.2 1.6 1.4z"/>
<path d="M32 36H15c-1.7 0-3-1.3-3-3V15h2v18c0 .6.4 1 1 1h17v2z"/>
<path d="M18.2 22.7L13 16.5l-5.2 6.2-1.6-1.4 6.8-7.8 6.8 7.8z"/>
</g>
</svg>